<svg xmlns="http://www.w3.org/2000/svg" viewBox="0 0 16 16" shape-rendering="crispEdges" role="img" aria-label="ヘッドホン">
  <title>ヘッドホン</title>
  <rect x="3" y="1" width="10" height="1" fill="#b06ad8"/>
  <rect x="1" y="2" width="1" height="1" fill="#b06ad8"/>
  <rect x="3" y="2" width="10" height="1" fill="#1b1b2e"/>
  <rect x="14" y="2" width="1" height="1" fill="#b06ad8"/>
  <rect x="1" y="3" width="1" height="1" fill="#b06ad8"/>
  <rect x="3" y="3" width="1" height="1" fill="#1b1b2e"/>
  <rect x="4" y="3" width="8" height="1" fill="#8a5a30"/>
  <rect x="12" y="3" width="1" height="1" fill="#1b1b2e"/>
  <rect x="14" y="3" width="1" height="1" fill="#b06ad8"/>
  <rect x="1" y="4" width="1" height="1" fill="#b06ad8"/>
  <rect x="2" y="4" width="1" height="1" fill="#1b1b2e"/>
  <rect x="3" y="4" width="10" height="1" fill="#8a5a30"/>
  <rect x="13" y="4" width="1" height="1" fill="#1b1b2e"/>
  <rect x="14" y="4" width="1" height="1" fill="#b06ad8"/>
  <rect x="0" y="5" width="2" height="1" fill="#b06ad8"/>
  <rect x="2" y="5" width="1" height="1" fill="#1b1b2e"/>
  <rect x="3" y="5" width="10" height="1" fill="#8a5a30"/>
  <rect x="13" y="5" width="1" height="1" fill="#1b1b2e"/>
  <rect x="14" y="5" width="2" height="1" fill="#b06ad8"/>
  <rect x="0" y="6" width="2" height="1" fill="#b06ad8"/>
  <rect x="2" y="6" width="1" height="1" fill="#1b1b2e"/>
  <rect x="3" y="6" width="1" height="1" fill="#8a5a30"/>
  <rect x="4" y="6" width="8" height="1" fill="#f7c9a2"/>
  <rect x="12" y="6" width="1" height="1" fill="#8a5a30"/>
  <rect x="13" y="6" width="1" height="1" fill="#1b1b2e"/>
  <rect x="14" y="6" width="2" height="1" fill="#b06ad8"/>
  <rect x="0" y="7" width="2" height="1" fill="#b06ad8"/>
  <rect x="2" y="7" width="1" height="1" fill="#1b1b2e"/>
  <rect x="3" y="7" width="1" height="1" fill="#f7c9a2"/>
  <rect x="4" y="7" width="2" height="1" fill="#1b1b2e"/>
  <rect x="6" y="7" width="4" height="1" fill="#f7c9a2"/>
  <rect x="10" y="7" width="2" height="1" fill="#1b1b2e"/>
  <rect x="12" y="7" width="1" height="1" fill="#f7c9a2"/>
  <rect x="13" y="7" width="1" height="1" fill="#1b1b2e"/>
  <rect x="14" y="7" width="2" height="1" fill="#b06ad8"/>
  <rect x="0" y="8" width="2" height="1" fill="#b06ad8"/>
  <rect x="2" y="8" width="1" height="1" fill="#1b1b2e"/>
  <rect x="3" y="8" width="1" height="1" fill="#f7c9a2"/>
  <rect x="4" y="8" width="2" height="1" fill="#1b1b2e"/>
  <rect x="6" y="8" width="4" height="1" fill="#f7c9a2"/>
  <rect x="10" y="8" width="2" height="1" fill="#1b1b2e"/>
  <rect x="12" y="8" width="1" height="1" fill="#f7c9a2"/>
  <rect x="13" y="8" width="1" height="1" fill="#1b1b2e"/>
  <rect x="14" y="8" width="2" height="1" fill="#b06ad8"/>
  <rect x="0" y="9" width="2" height="1" fill="#b06ad8"/>
  <rect x="2" y="9" width="1" height="1" fill="#1b1b2e"/>
  <rect x="3" y="9" width="10" height="1" fill="#f7c9a2"/>
  <rect x="13" y="9" width="1" height="1" fill="#1b1b2e"/>
  <rect x="14" y="9" width="2" height="1" fill="#b06ad8"/>
  <rect x="1" y="10" width="1" height="1" fill="#b06ad8"/>
  <rect x="2" y="10" width="1" height="1" fill="#1b1b2e"/>
  <rect x="3" y="10" width="1" height="1" fill="#f7c9a2"/>
  <rect x="4" y="10" width="1" height="1" fill="#ef8b8b"/>
  <rect x="5" y="10" width="2" height="1" fill="#f7c9a2"/>
  <rect x="7" y="10" width="2" height="1" fill="#1b1b2e"/>
  <rect x="9" y="10" width="2" height="1" fill="#f7c9a2"/>
  <rect x="11" y="10" width="1" height="1" fill="#ef8b8b"/>
  <rect x="12" y="10" width="1" height="1" fill="#f7c9a2"/>
  <rect x="13" y="10" width="1" height="1" fill="#1b1b2e"/>
  <rect x="14" y="10" width="1" height="1" fill="#b06ad8"/>
  <rect x="2" y="11" width="1" height="1" fill="#1b1b2e"/>
  <rect x="3" y="11" width="10" height="1" fill="#f7c9a2"/>
  <rect x="13" y="11" width="1" height="1" fill="#1b1b2e"/>
  <rect x="3" y="12" width="1" height="1" fill="#1b1b2e"/>
  <rect x="4" y="12" width="8" height="1" fill="#f7c9a2"/>
  <rect x="12" y="12" width="1" height="1" fill="#1b1b2e"/>
  <rect x="4" y="13" width="8" height="1" fill="#1b1b2e"/>
</svg>
